<svg xmlns="http://www.w3.org/2000/svg" xmlns:xlink="http://www.w3.org/1999/xlink" width="500" zoomAndPan="magnify" viewBox="0 0 375 374.999991" height="500" preserveAspectRatio="xMidYMid meet" version="1.0"><defs><g/></defs><g fill="#ffffff" fill-opacity="1"><g transform="translate(33.933875, 226.49537)"><g><path d="M 57.796875 -21.890625 C 57.796875 -15.929688 55.910156 -10.910156 52.140625 -6.828125 C 48.378906 -2.742188 43.164062 -0.15625 36.5 0.9375 L 36.5 18.25 L 27.078125 18.25 L 27.078125 1.296875 C 17.421875 0.828125 9.375 -2.546875 2.9375 -8.828125 L 9.296875 -15.78125 C 14.953125 -10.28125 21.703125 -7.53125 29.546875 -7.53125 C 34.492188 -7.53125 38.554688 -8.742188 41.734375 -11.171875 C 44.910156 -13.609375 46.5 -17.066406 46.5 -21.546875 C 46.5 -24.128906 46.007812 -26.285156 45.03125 -28.015625 C 44.050781 -29.742188 42.34375 -31.273438 39.90625 -32.609375 C 37.46875 -33.941406 33.972656 -35.316406 29.421875 -36.734375 C 21.335938 -39.242188 15.429688 -42.203125 11.703125 -45.609375 C 7.984375 -49.023438 6.125 -53.640625 6.125 -59.453125 C 6.125 -64.941406 8.046875 -69.53125 11.890625 -73.21875 C 15.734375 -76.90625 20.796875 -79.101562 27.078125 -79.8125 L 27.078125 -97 L 36.5 -97 L 36.5 -79.703125 C 40.257812 -79.304688 43.648438 -78.378906 46.671875 -76.921875 C 49.691406 -75.472656 52.578125 -73.453125 55.328125 -70.859375 L 49.09375 -64.03125 C 46.425781 -66.550781 43.660156 -68.359375 40.796875 -69.453125 C 37.929688 -70.554688 34.8125 -71.109375 31.4375 -71.109375 C 27.269531 -71.109375 23.867188 -70.144531 21.234375 -68.21875 C 18.609375 -66.289062 17.296875 -63.523438 17.296875 -59.921875 C 17.296875 -57.640625 17.765625 -55.734375 18.703125 -54.203125 C 19.648438 -52.671875 21.335938 -51.257812 23.765625 -49.96875 C 26.203125 -48.675781 29.773438 -47.285156 34.484375 -45.796875 C 39.429688 -44.304688 43.550781 -42.65625 46.84375 -40.84375 C 50.144531 -39.039062 52.796875 -36.609375 54.796875 -33.546875 C 56.796875 -30.484375 57.796875 -26.597656 57.796875 -21.890625 Z M 57.796875 -21.890625 "/></g></g></g><g fill="#ffffff" fill-opacity="1"><g transform="translate(91.495982, 226.49537)"><g><path d="M 35.546875 -34.375 L 22.953125 -34.375 L 22.953125 0 L 11.765625 0 L 11.765625 -81.109375 L 33.078125 -81.109375 C 43.203125 -81.109375 50.875 -79.1875 56.09375 -75.34375 C 61.3125 -71.5 63.921875 -65.769531 63.921875 -58.15625 C 63.921875 -52.5 62.46875 -47.90625 59.5625 -44.375 C 56.65625 -40.84375 52.257812 -38.175781 46.375 -36.375 L 68.28125 0 L 54.96875 0 Z M 34.25 -42.96875 C 40.132812 -42.96875 44.566406 -44.160156 47.546875 -46.546875 C 50.535156 -48.941406 52.03125 -52.8125 52.03125 -58.15625 C 52.03125 -63.175781 50.519531 -66.800781 47.5 -69.03125 C 44.476562 -71.269531 39.632812 -72.390625 32.96875 -72.390625 L 22.953125 -72.390625 L 22.953125 -42.96875 Z M 34.25 -42.96875 "/></g></g></g><g fill="#ffffff" fill-opacity="1"><g transform="translate(157.768988, 226.49537)"><g><path d="M 22.953125 -81.109375 L 22.953125 0 L 11.765625 0 L 11.765625 -81.109375 Z M 67.09375 -81.109375 L 36.375 -44.03125 L 69.34375 0 L 55.5625 0 L 23.546875 -43.328125 L 54.390625 -81.109375 Z M 67.09375 -81.109375 "/></g></g></g><g fill="#ffffff" fill-opacity="1"><g transform="translate(222.15856, 226.49537)"><g><path d="M 55.6875 -81.109375 L 54.390625 -72.15625 L 22.953125 -72.15625 L 22.953125 -45.671875 L 50.265625 -45.671875 L 50.265625 -36.734375 L 22.953125 -36.734375 L 22.953125 -8.953125 L 56.625 -8.953125 L 56.625 0 L 11.765625 0 L 11.765625 -81.109375 Z M 55.6875 -81.109375 "/></g></g></g><g fill="#ffffff" fill-opacity="1"><g transform="translate(280.191534, 226.49537)"><g><path d="M 59.6875 -81.109375 L 58.5 -71.578125 L 36.015625 -71.578125 L 36.015625 0 L 24.84375 0 L 24.84375 -71.578125 L 1.765625 -71.578125 L 1.765625 -81.109375 Z M 59.6875 -81.109375 "/></g></g></g></svg>